Coordinates
version=1
nRows=20
nColumns=38
inDegrees=no

Units are S.I. units (second, meters, Newtons, ...)
If the header above contains a line with 'inDegrees', this indicates whether rotational values are in degrees (yes) or radians (no).

endheader
time	pelvis_tilt	pelvis_list	pelvis_rotation	pelvis_tx	pelvis_ty	pelvis_tz	hip_flexion_r	hip_adduction_r	hip_rotation_r	knee_angle_r	ankle_angle_r	subtalar_angle_r	mtp_angle_r	hip_flexion_l	hip_adduction_l	hip_rotation_l	knee_angle_l	ankle_angle_l	subtalar_angle_l	mtp_angle_l	lumbar_extension	lumbar_bending	lumbar_rotation	arm_flex_r	arm_add_r	arm_rot_r	elbow_flex_r	pro_sup_r	wrist_flex_r	wrist_dev_r	arm_flex_l	arm_add_l	arm_rot_l	elbow_flex_l	pro_sup_l	wrist_flex_l	wrist_dev_l
5	-1.15149	1.53599	-0.321598	0.698987	-0.782418	0.922546	-0.0198995	-0.0393892	-0.234722	0.256551	-0.239792	0	0	0.129795	-0.283683	-0.335187	0.547012	-0.168829	0	0	-0.0361053	0.0730288	-0.0490252	-0.164208	-0.149222	-0.524678	0.768376	0.823515	0	0	0.166602	-0.0935554	0.371468	0.440161	1.5708	0	0
5.01	-1.88544	1.3544	0.453549	0.700924	-0.781156	0.899636	0.0892115	0.1506	-0.213553	0.246549	-0.224804	0	0	0.349824	-0.515109	-0.371853	0.716224	-0.0830651	0	0	0.0936916	0.26262	-0.077709	-0.253805	-0.185228	-0.51082	0.906776	0.819115	0	0	0.14092	-0.0704446	0.385011	0.478325	1.5708	0	0
5.02	-1.88653	1.46543	0.431359	0.70476	-0.784711	0.910707	0.0491533	0.0207275	-0.24167	0.294706	-0.210807	0	0	0.221444	-0.349022	-0.314015	0.587702	-0.103344	0	0	0.0364197	0.156014	-0.0560636	-0.204056	-0.183053	-0.483306	0.833598	0.823709	0	0	0.151084	-0.068829	0.372384	0.433084	1.5708	0	0
5.03	-1.95628	1.46119	0.515199	0.706256	-0.78371	0.909835	0.0663651	0.0177536	-0.249016	0.31339	-0.202326	0	0	0.209393	-0.305198	-0.205517	0.496079	-0.103647	0	0	0.0454073	0.15562	-0.0692139	-0.19222	-0.187064	-0.463907	0.825848	0.824725	0	0	0.15292	-0.067915	0.370991	0.42308	1.5708	0	0
5.04	-1.66766	1.51301	0.23827	0.703694	-0.78491	0.918003	0.00708264	-0.0160264	-0.259501	0.282103	-0.219184	0	0	0.0999863	-0.247163	-0.219059	0.326235	-0.203334	0	0	-0.00360492	0.0997048	-0.0830184	-0.145495	-0.168126	-0.445597	0.764383	0.83641	0	0	0.159127	-0.087066	0.367396	0.411149	1.5708	0	0
5.05	-1.50752	1.51431	0.084653	0.704372	-0.786164	0.918757	-0.00796954	-0.0148843	-0.266452	0.275223	-0.223219	0	0	0.0754996	-0.236485	-0.195682	0.280809	-0.243372	0	0	-0.0123131	0.0985315	-0.0885637	-0.136133	-0.170864	-0.419581	0.757698	0.889058	0	0	0.158364	-0.0887106	0.367836	0.404532	1.5708	0	0
5.06	-1.48338	1.51132	0.0617004	0.704923	-0.78737	0.918431	-0.00995574	-0.0118393	-0.26645	0.27736	-0.221133	0	0	0.0662866	-0.234089	-0.190985	0.259825	-0.253694	0	0	-0.0119643	0.101669	-0.088151	-0.130481	-0.173807	-0.403946	0.754653	0.891141	0	0	0.157245	-0.0880388	0.369638	0.396266	1.5708	0	0
5.07	-1.48936	1.50635	0.0695962	0.705659	-0.788601	0.917791	-0.0101506	-0.00699319	-0.268339	0.279978	-0.218691	0	0	0.0627654	-0.236332	-0.193762	0.251642	-0.252765	0	0	-0.00922953	0.107135	-0.0881594	-0.126206	-0.174891	-0.400457	0.752347	0.843149	0	0	0.155859	-0.0864778	0.370385	0.38793	1.5708	0	0
5.08	-1.4719	1.49838	0.0561091	0.706691	-0.789863	0.917068	-0.0153853	0.00217393	-0.271576	0.274763	-0.220082	0	0	0.0651807	-0.245745	-0.207038	0.264738	-0.241951	0	0	-0.00749566	0.116022	-0.0909625	-0.122614	-0.178866	-0.38049	0.751916	0.897658	0	0	0.154703	-0.085292	0.375169	0.379674	1.5708	0	0
5.09	-1.44606	1.49329	0.0335685	0.707653	-0.791134	0.916671	-0.0216285	0.00804808	-0.275024	0.269975	-0.220581	0	0	0.0573147	-0.249266	-0.213385	0.258592	-0.236928	0	0	-0.00708681	0.121373	-0.093247	-0.117848	-0.180108	-0.37118	0.748978	0.902015	0	0	0.153602	-0.0847812	0.378999	0.37163	1.5708	0	0
5.1	-1.45965	1.4887	0.0486449	0.708589	-0.792539	0.916	-0.0222302	0.0121651	-0.278336	0.271424	-0.216581	0	0	0.0530596	-0.252971	-0.222724	0.254552	-0.234109	0	0	-0.00291475	0.126266	-0.0942407	-0.114328	-0.180158	-0.371998	0.746167	0.846777	0	0	0.151074	-0.083518	0.378501	0.364084	1.5708	0	0
5.11	-1.40727	1.48638	0.00122714	0.709762	-0.793608	0.916071	-0.0325845	0.0153644	-0.283363	0.262674	-0.219797	0	0	0.0353552	-0.250133	-0.206821	0.225008	-0.235197	0	0	-0.00563194	0.128194	-0.0984379	-0.108295	-0.180357	-0.357918	0.741756	0.910429	0	0	0.152231	-0.0842839	0.389393	0.353796	1.5708	0	0
5.12	-1.43616	1.48213	0.0328345	0.710994	-0.794534	0.915323	-0.0314364	0.0191295	-0.284873	0.263448	-0.217546	0	0	0.0356404	-0.254118	-0.200048	0.220674	-0.233736	0	0	-0.000776829	0.132861	-0.101206	-0.104456	-0.18046	-0.358902	0.738428	0.853799	0	0	0.150507	-0.0828128	0.387884	0.346341	1.5708	0	0
5.13	-1.4602	1.47658	0.0643473	0.712697	-0.794236	0.914611	-0.0289266	0.0240647	-0.287373	0.264951	-0.217814	0	0	0.0488919	-0.261899	-0.186263	0.238153	-0.225347	0	0	0.00177636	0.139163	-0.107188	-0.098831	-0.180168	-0.352473	0.737032	0.916329	0	0	0.155257	-0.0820345	0.405428	0.333956	1.5708	0	0
5.14	-1.35503	1.47398	-0.0338422	0.714286	-0.79639	0.91497	-0.0514733	0.0287941	-0.299662	0.246886	-0.223057	0	0	0.0334256	-0.26539	-0.177856	0.228731	-0.229099	0	0	-0.0038533	0.141296	-0.111837	-0.0981087	-0.178224	-0.352033	0.735637	0.921483	0	0	0.166705	-0.0825147	0.468228	0.303704	1.5708	0	0
5.15	-1.29453	1.47269	-0.0812177	0.717099	-0.796691	0.914741	-0.0624428	0.0280133	-0.317407	0.242953	-0.222793	0	0	0.0062121	-0.255895	-0.12433	0.165396	-0.230541	0	0	-0.00811895	0.143146	-0.124537	-0.0945052	-0.177837	-0.349435	0.73672	0.925811	0	0	0.168449	-0.0817244	0.474443	0.296015	1.5708	0	0
5.16	-1.31774	1.47217	-0.0553626	0.718727	-0.797954	0.914252	-0.062886	0.0275393	-0.320843	0.242071	-0.220643	0	0	0.0114071	-0.256286	-0.125615	0.177278	-0.234127	0	0	-0.00301472	0.143882	-0.126282	-0.0942743	-0.177133	-0.352404	0.734276	0.878227	0	0	0.167427	-0.0800711	0.479263	0.287348	1.5708	0	0
5.17	-1.31142	1.47273	-0.0590175	0.71997	-0.798951	0.914082	-0.0674052	0.0270518	-0.32262	0.236759	-0.221753	0	0	0.0101703	-0.255073	-0.126585	0.178572	-0.234521	0	0	-0.00200681	0.142332	-0.128782	-0.0916276	-0.174258	-0.348189	0.73058	0.928913	0	0	0.155687	-0.0815092	0.435794	0.301709	1.5708	0	0
5.18	-1.31184	1.47373	-0.0573781	0.721198	-0.799893	0.914007	-0.0691423	0.0252571	-0.3231	0.236093	-0.221025	0	0	0.00720602	-0.252512	-0.129462	0.17578	-0.23515	0	0	-0.000187392	0.140876	-0.129361	-0.0905961	-0.172381	-0.350926	0.727624	0.886027	0	0	0.155506	-0.0816854	0.441405	0.294894	1.5708	0	0
5.19	-1.31923	1.47455	-0.049985	0.722261	-0.800812	0.913976	-0.0697158	0.0238619	-0.320013	0.235435	-0.220965	0	0	0.00403579	-0.25025	-0.134306	0.172182	-0.234523	0	0	0.002208	0.139469	-0.129302	-0.089056	-0.170109	-0.349867	0.723745	0.889447	0	0	0.154666	-0.0820709	0.444152	0.289349	1.5708	0	0
